# xmcd CD database file
#
# Track frame offsets:
#	150
#	25790
#	42117
#	56490
#	77940
#	98340
#	116333
#	144736
#	161005
#	184417
#
# Disc length: 2716 seconds
#
# Revision: 1
# Processed by: cddbd v1.5.2PL0 Copyright (c) Steve Scherf et al.
# Submitted via: CDex 1.70beta2
#
DISCID=7b0a9a0a
DTITLE=Faith Gibson - You Don't Know Me
DYEAR=2004
DGENRE=Jazz
TTITLE0=A Ain't Get Nothin' But The Blues
TTITLE1=Honeysuckle Rose
TTITLE2=Alley Cat Love Song
TTITLE3=Undun
TTITLE4=You Don't Know Me
TTITLE5=Scotch And Soda
TTITLE6=Don't Like Goodbyes
TTITLE7=Any Place I Hang My Hat Is Home
TTITLE8=Moondance
TTITLE9='Round Midnight
EXTD=YEAR: 2004
EXTT0=
EXTT1=
EXTT2=
EXTT3=
EXTT4=
EXTT5=
EXTT6=
EXTT7=
EXTT8=
EXTT9=
PLAYORDER=
